<svg id="visual" viewBox="0 0 960 540" width="960" height="540" xmlns="http://www.w3.org/2000/svg" xmlns:xlink="http://www.w3.org/1999/xlink" version="1.1"><rect x="0" y="0" width="960" height="540" fill="#e5c9f4"></rect><path d="M0 338L22.8 335.2C45.7 332.3 91.3 326.7 137 325.7C182.7 324.7 228.3 328.3 274 335.3C319.7 342.3 365.3 352.7 411.2 351.2C457 349.7 503 336.3 548.8 328.5C594.7 320.7 640.3 318.3 686 329.2C731.7 340 777.3 364 823 366.2C868.7 368.3 914.3 348.7 937.2 338.8L960 329L960 541L937.2 541C914.3 541 868.7 541 823 541C777.3 541 731.7 541 686 541C640.3 541 594.7 541 548.8 541C503 541 457 541 411.2 541C365.3 541 319.7 541 274 541C228.3 541 182.7 541 137 541C91.3 541 45.7 541 22.8 541L0 541Z" fill="#cc8de5"></path><path d="M0 405L22.8 404.3C45.7 403.7 91.3 402.3 137 405.2C182.7 408 228.3 415 274 418.5C319.7 422 365.3 422 411.2 414.2C457 406.3 503 390.7 548.8 387.2C594.7 383.7 640.3 392.3 686 400.5C731.7 408.7 777.3 416.3 823 417C868.7 417.7 914.3 411.3 937.2 408.2L960 405L960 541L937.2 541C914.3 541 868.7 541 823 541C777.3 541 731.7 541 686 541C640.3 541 594.7 541 548.8 541C503 541 457 541 411.2 541C365.3 541 319.7 541 274 541C228.3 541 182.7 541 137 541C91.3 541 45.7 541 22.8 541L0 541Z" fill="#bf7bda"></path><path d="M0 437L22.8 435C45.7 433 91.3 429 137 426C182.7 423 228.3 421 274 425.2C319.7 429.3 365.3 439.7 411.2 438C457 436.3 503 422.7 548.8 417.8C594.7 413 640.3 417 686 423.5C731.7 430 777.3 439 823 444.5C868.7 450 914.3 452 937.2 453L960 454L960 541L937.2 541C914.3 541 868.7 541 823 541C777.3 541 731.7 541 686 541C640.3 541 594.7 541 548.8 541C503 541 457 541 411.2 541C365.3 541 319.7 541 274 541C228.3 541 182.7 541 137 541C91.3 541 45.7 541 22.8 541L0 541Z" fill="#b368cf"></path><path d="M0 470L22.8 469.3C45.7 468.7 91.3 467.3 137 470.3C182.7 473.3 228.3 480.7 274 478.7C319.7 476.7 365.3 465.3 411.2 465.2C457 465 503 476 548.8 473.2C594.7 470.3 640.3 453.7 686 451.5C731.7 449.3 777.3 461.7 823 468.2C868.7 474.7 914.3 475.3 937.2 475.7L960 476L960 541L937.2 541C914.3 541 868.7 541 823 541C777.3 541 731.7 541 686 541C640.3 541 594.7 541 548.8 541C503 541 457 541 411.2 541C365.3 541 319.7 541 274 541C228.3 541 182.7 541 137 541C91.3 541 45.7 541 22.8 541L0 541Z" fill="#a655c4"></path><path d="M0 486L22.8 486.3C45.7 486.7 91.3 487.3 137 485.2C182.7 483 228.3 478 274 479.2C319.7 480.3 365.3 487.7 411.2 490.5C457 493.3 503 491.7 548.8 494.7C594.7 497.7 640.3 505.3 686 504.2C731.7 503 777.3 493 823 486.8C868.7 480.7 914.3 478.3 937.2 477.2L960 476L960 541L937.2 541C914.3 541 868.7 541 823 541C777.3 541 731.7 541 686 541C640.3 541 594.7 541 548.8 541C503 541 457 541 411.2 541C365.3 541 319.7 541 274 541C228.3 541 182.7 541 137 541C91.3 541 45.7 541 22.8 541L0 541Z" fill="#9941b8"></path></svg>