<svg id="visual" viewBox="0 0 540 1200" width="540" height="1200" xmlns="http://www.w3.org/2000/svg" xmlns:xlink="http://www.w3.org/1999/xlink" version="1.1"><rect x="0" y="0" width="540" height="1200" fill="#e9bfff"></rect><path d="M0 752L12.8 745.7C25.7 739.3 51.3 726.7 77 724.7C102.7 722.7 128.3 731.3 154 746.8C179.7 762.3 205.3 784.7 231.2 781.2C257 777.7 283 748.3 308.8 731C334.7 713.7 360.3 708.3 386 732.5C411.7 756.7 437.3 810.3 463 815.3C488.7 820.3 514.3 776.7 527.2 754.8L540 733L540 1201L527.2 1201C514.3 1201 488.7 1201 463 1201C437.3 1201 411.7 1201 386 1201C360.3 1201 334.7 1201 308.8 1201C283 1201 257 1201 231.2 1201C205.3 1201 179.7 1201 154 1201C128.3 1201 102.7 1201 77 1201C51.3 1201 25.7 1201 12.8 1201L0 1201Z" fill="#cc8de5"></path><path d="M0 901L12.8 899.3C25.7 897.7 51.3 894.3 77 900.7C102.7 907 128.3 923 154 931.2C179.7 939.3 205.3 939.7 231.2 922.2C257 904.7 283 869.3 308.8 861.2C334.7 853 360.3 872 386 890.2C411.7 908.3 437.3 925.7 463 927.2C488.7 928.7 514.3 914.3 527.2 907.2L540 900L540 1201L527.2 1201C514.3 1201 488.7 1201 463 1201C437.3 1201 411.7 1201 386 1201C360.3 1201 334.7 1201 308.8 1201C283 1201 257 1201 231.2 1201C205.3 1201 179.7 1201 154 1201C128.3 1201 102.7 1201 77 1201C51.3 1201 25.7 1201 12.8 1201L0 1201Z" fill="#bf7bda"></path><path d="M0 972L12.8 967.7C25.7 963.3 51.3 954.7 77 948C102.7 941.3 128.3 936.7 154 946C179.7 955.3 205.3 978.7 231.2 975.2C257 971.7 283 941.3 308.8 930.5C334.7 919.7 360.3 928.3 386 942.7C411.7 957 437.3 977 463 989.2C488.7 1001.3 514.3 1005.7 527.2 1007.8L540 1010L540 1201L527.2 1201C514.3 1201 488.7 1201 463 1201C437.3 1201 411.7 1201 386 1201C360.3 1201 334.7 1201 308.8 1201C283 1201 257 1201 231.2 1201C205.3 1201 179.7 1201 154 1201C128.3 1201 102.7 1201 77 1201C51.3 1201 25.7 1201 12.8 1201L0 1201Z" fill="#b368cf"></path><path d="M0 1046L12.8 1044.7C25.7 1043.3 51.3 1040.7 77 1047.2C102.7 1053.7 128.3 1069.3 154 1064.5C179.7 1059.7 205.3 1034.3 231.2 1034C257 1033.7 283 1058.3 308.8 1052.3C334.7 1046.3 360.3 1009.7 386 1005C411.7 1000.3 437.3 1027.7 463 1042.2C488.7 1056.7 514.3 1058.3 527.2 1059.2L540 1060L540 1201L527.2 1201C514.3 1201 488.7 1201 463 1201C437.3 1201 411.7 1201 386 1201C360.3 1201 334.7 1201 308.8 1201C283 1201 257 1201 231.2 1201C205.3 1201 179.7 1201 154 1201C128.3 1201 102.7 1201 77 1201C51.3 1201 25.7 1201 12.8 1201L0 1201Z" fill="#a655c4"></path><path d="M0 1081L12.8 1081.7C25.7 1082.3 51.3 1083.7 77 1079C102.7 1074.3 128.3 1063.7 154 1066.3C179.7 1069 205.3 1085 231.2 1091.3C257 1097.7 283 1094.3 308.8 1101C334.7 1107.7 360.3 1124.3 386 1121.5C411.7 1118.7 437.3 1096.3 463 1082.7C488.7 1069 514.3 1064 527.2 1061.5L540 1059L540 1201L527.2 1201C514.3 1201 488.7 1201 463 1201C437.3 1201 411.7 1201 386 1201C360.3 1201 334.7 1201 308.8 1201C283 1201 257 1201 231.2 1201C205.3 1201 179.7 1201 154 1201C128.3 1201 102.7 1201 77 1201C51.3 1201 25.7 1201 12.8 1201L0 1201Z" fill="#9941b8"></path></svg>