<svg id="visual" viewBox="0 0 900 600" width="900" height="600" xmlns="http://www.w3.org/2000/svg" xmlns:xlink="http://www.w3.org/1999/xlink" version="1.1"><rect x="0" y="0" width="900" height="600" fill="#001220"></rect><path d="M0 386L21.5 390.7C43 395.3 86 404.7 128.8 399.3C171.7 394 214.3 374 257.2 374C300 374 343 394 385.8 396.3C428.7 398.7 471.3 383.3 514.2 386.8C557 390.3 600 412.7 642.8 421.2C685.7 429.7 728.3 424.3 771.2 416C814 407.7 857 396.3 878.5 390.7L900 385L900 601L878.5 601C857 601 814 601 771.2 601C728.3 601 685.7 601 642.8 601C600 601 557 601 514.2 601C471.3 601 428.7 601 385.8 601C343 601 300 601 257.2 601C214.3 601 171.7 601 128.8 601C86 601 43 601 21.5 601L0 601Z" fill="#fa7268"></path><path d="M0 451L21.5 446.5C43 442 86 433 128.8 429.8C171.7 426.7 214.3 429.3 257.2 438.7C300 448 343 464 385.8 469.3C428.7 474.7 471.3 469.3 514.2 460.3C557 451.3 600 438.7 642.8 440C685.7 441.3 728.3 456.7 771.2 461.8C814 467 857 462 878.5 459.5L900 457L900 601L878.5 601C857 601 814 601 771.2 601C728.3 601 685.7 601 642.8 601C600 601 557 601 514.2 601C471.3 601 428.7 601 385.8 601C343 601 300 601 257.2 601C214.3 601 171.7 601 128.8 601C86 601 43 601 21.5 601L0 601Z" fill="#ef5f67"></path><path d="M0 494L21.5 496.8C43 499.7 86 505.3 128.8 507.2C171.7 509 214.3 507 257.2 507C300 507 343 509 385.8 506C428.7 503 471.3 495 514.2 489C557 483 600 479 642.8 476.2C685.7 473.3 728.3 471.7 771.2 467.2C814 462.7 857 455.3 878.5 451.7L900 448L900 601L878.5 601C857 601 814 601 771.2 601C728.3 601 685.7 601 642.8 601C600 601 557 601 514.2 601C471.3 601 428.7 601 385.8 601C343 601 300 601 257.2 601C214.3 601 171.7 601 128.8 601C86 601 43 601 21.5 601L0 601Z" fill="#e34c67"></path><path d="M0 494L21.5 501.8C43 509.7 86 525.3 128.8 527.7C171.7 530 214.3 519 257.2 513.3C300 507.7 343 507.3 385.8 511.8C428.7 516.3 471.3 525.7 514.2 525C557 524.3 600 513.7 642.8 507C685.7 500.3 728.3 497.7 771.2 501.3C814 505 857 515 878.5 520L900 525L900 601L878.5 601C857 601 814 601 771.2 601C728.3 601 685.7 601 642.8 601C600 601 557 601 514.2 601C471.3 601 428.7 601 385.8 601C343 601 300 601 257.2 601C214.3 601 171.7 601 128.8 601C86 601 43 601 21.5 601L0 601Z" fill="#d53867"></path><path d="M0 567L21.5 559.8C43 552.7 86 538.3 128.8 538.5C171.7 538.7 214.3 553.3 257.2 560.5C300 567.7 343 567.3 385.8 563.5C428.7 559.7 471.3 552.3 514.2 550.3C557 548.3 600 551.7 642.8 552C685.7 552.3 728.3 549.7 771.2 545.5C814 541.3 857 535.7 878.5 532.8L900 530L900 601L878.5 601C857 601 814 601 771.2 601C728.3 601 685.7 601 642.8 601C600 601 557 601 514.2 601C471.3 601 428.7 601 385.8 601C343 601 300 601 257.2 601C214.3 601 171.7 601 128.8 601C86 601 43 601 21.5 601L0 601Z" fill="#c62368"></path></svg>